<svg xmlns="http://www.w3.org/2000/svg" width="128" height="128" fill="none">
  <path fill="url(#a)" fill-rule="evenodd" d="M74.3522 9.52579c3.2668 5.73271 1.2804 13.03551-4.4366 16.31141l-35.548 20.3676c-.941.5392-1.5215 1.5403-1.5215 2.6241v31.9824c0 1.0844.5805 2.085 1.5215 2.6242l28.1263 16.1157c.9328.5348 2.0794.5348 3.0122 0l28.1264-16.1157c.9411-.5392 1.5214-1.5398 1.5214-2.6242V60.9221L69.8591 75.2326c-5.7351 3.2443-13.0074 1.2129-16.2433-4.5375-3.2358-5.7504-1.2099-13.0424 4.5252-16.2869l36.1934-20.4763C105.359 27.6947 119 35.6819 119 48.3745v34.8609c0 8.1652-4.363 15.7044-11.434 19.7556l-32.3076 18.511c-6.976 3.997-15.5406 3.997-22.5169 0l-32.3077-18.511C13.3634 98.9398 9 91.4006 9 83.2354V46.4052c0-8.1652 4.3634-15.7044 11.4338-19.7554L58.0845 5.07722c5.7173-3.27583 13.0003-1.28414 16.2677 4.44857Z" clip-rule="evenodd"/>
  <defs>
    <linearGradient id="a" x1="91.7928" x2="35.1158" y1="21.7977" y2="110.662" gradientUnits="userSpaceOnUse">
      <stop stop-color="#FFB45B"/>
      <stop offset="1" stop-color="#FF8A00"/>
    </linearGradient>
  </defs>
</svg>